<?xml version="1.0" encoding="UTF-8"?>
<svg version="1.1" xmlns="http://www.w3.org/2000/svg" width="293" height="57">
<path d="M0 0 C0.83272934 0.00222061 1.66545868 0.00444122 2.52342224 0.00672913 C3.46432205 0.00680466 4.40522186 0.00688019 5.37463379 0.00695801 C6.39754013 0.01211929 7.42044647 0.01728058 8.47434998 0.02259827 C9.51614914 0.02401321 10.5579483 0.02542816 11.63131714 0.02688599 C14.97355467 0.03250372 18.31572629 0.04505922 21.65794373 0.05775452 C23.91770839 0.06276723 26.17747409 0.06733053 28.4372406 0.07142639 C33.98999763 0.08247891 39.54271597 0.09923428 45.09544373 0.12025452 C46.66954384 4.29788355 47.33670924 7.71749933 47.29075623 12.17494202 C47.28431091 13.28353577 47.2778656 14.39212952 47.27122498 15.53431702 C47.25446716 16.67642639 47.23770935 17.81853577 47.22044373 18.99525452 C47.21142029 20.16056702 47.20239685 21.32587952 47.19309998 22.52650452 C47.16961804 25.39130029 47.13677514 28.25566986 47.09544373 31.12025452 C48.54950623 31.08931702 48.54950623 31.08931702 50.03294373 31.05775452 C53.09544373 31.12025452 53.09544373 31.12025452 54.09544373 32.12025452 C54.09544373 38.93844842 52.67647182 42.83036416 48.27122498 48.03822327 C40.40924937 55.5614423 32.52061028 57.60439125 21.90013123 57.39759827 C12.80243937 56.7344195 6.60090995 52.01090309 0.58763123 45.48353577 C-4.07567386 39.34129678 -4.25004988 31.58823163 -3.90455627 24.12025452 C-2.91455627 22.63525452 -2.91455627 22.63525452 -1.90455627 21.12025452 C-1.73648337 18.90687045 -1.73648337 18.90687045 -1.96315002 16.48744202 C-2.01922424 15.59927795 -2.07529846 14.71111389 -2.1330719 13.79603577 C-2.20203674 12.87177795 -2.27100159 11.94752014 -2.34205627 10.99525452 C-2.47027093 9.15962692 -2.59420795 7.32369376 -2.71315002 5.48744202 C-2.77301086 4.67388245 -2.8328717 3.86032288 -2.89454651 3.02210999 C-2.89950134 2.08069153 -2.89950134 2.08069153 -2.90455627 1.12025452 C-1.90455627 0.12025452 -1.90455627 0.12025452 0 0 Z M35.09544373 15.12025452 C34.76544373 16.77025452 34.43544373 18.42025452 34.09544373 20.12025452 C32.44544373 20.12025452 30.79544373 20.12025452 29.09544373 20.12025452 C28.76544373 19.46025452 28.43544373 18.80025452 28.09544373 18.12025452 C27.10544373 18.61525452 27.10544373 18.61525452 26.09544373 19.12025452 C26.75544373 20.44025452 27.41544373 21.76025452 28.09544373 23.12025452 C26.44544373 23.12025452 24.79544373 23.12025452 23.09544373 23.12025452 C23.42544373 21.80025452 23.75544373 20.48025452 24.09544373 19.12025452 C23.45606873 19.38837952 22.81669373 19.65650452 22.15794373 19.93275452 C18.18061328 21.47498469 14.148463 22.78941237 10.09544373 24.12025452 C9.76544373 28.41025452 9.43544373 32.70025452 9.09544373 37.12025452 C13.12430011 37.79173058 16.34315962 38.24784419 20.31809998 38.25306702 C21.74412537 38.25500061 21.74412537 38.25500061 23.19895935 38.25697327 C24.17542419 38.25310608 25.15188904 38.24923889 26.15794373 38.24525452 C27.62844177 38.2510553 27.62844177 38.2510553 29.12864685 38.25697327 C30.55273865 38.25503967 30.55273865 38.25503967 32.00559998 38.25306702 C32.8629071 38.25193909 33.72021423 38.25081116 34.60350037 38.24964905 C37.18494593 38.1156071 39.57670782 37.68786491 42.09544373 37.12025452 C41.98106721 34.39026776 41.85432967 31.66179632 41.72044373 28.93275452 C41.68950623 28.16382874 41.65856873 27.39490295 41.62669373 26.60267639 C41.40928262 22.3812774 40.99801301 18.97953124 39.09544373 15.12025452 C37.77544373 15.12025452 36.45544373 15.12025452 35.09544373 15.12025452 Z M9.09544373 43.12025452 C13.93661015 49.17171255 17.96879351 51.53073306 25.59544373 52.62025452 C33.22209394 51.53073306 37.2542773 49.17171255 42.09544373 43.12025452 C31.20544373 43.12025452 20.31544373 43.12025452 9.09544373 43.12025452 Z " fill="#E2FA55" transform="translate(238.90455627441406,-0.1202545166015625)"/>
<path d="M0 0 C1.80619523 4.46236469 2.11658501 7.31034294 1 12 C-6.42857143 14.14285714 -6.42857143 14.14285714 -10 15 C-9.979375 15.804375 -9.95875 16.60875 -9.9375 17.4375 C-10 20 -10 20 -11 21 C-12.66617115 21.04063832 -14.33388095 21.042721 -16 21 C-16.33 20.01 -16.66 19.02 -17 18 C-17 18.99 -17 19.98 -17 21 C-17 21.66 -17 22.32 -17 23 C-18.65 23 -20.3 23 -22 23 C-22 22.01 -22 21.02 -22 20 C-22.84304688 20.46019531 -22.84304688 20.46019531 -23.703125 20.9296875 C-26.06346934 22.02957585 -28.20465562 22.60095851 -30.75 23.125 C-31.54921875 23.29257812 -32.3484375 23.46015625 -33.171875 23.6328125 C-33.77515625 23.75398438 -34.3784375 23.87515625 -35 24 C-39.92307692 18.95384615 -39.92307692 18.95384615 -40.3125 14.125 C-40.209375 13.09375 -40.10625 12.0625 -40 11 C-32.96344569 7.12926661 -26.09259914 4.62358508 -18.3125 2.6875 C-17.31927734 2.42388672 -16.32605469 2.16027344 -15.30273438 1.88867188 C-10.06106398 0.54777945 -5.40986181 -0.32534833 0 0 Z " fill="#E2E4E4" transform="translate(284,0)"/>
<path d="M0 0 C1.65497356 3.30994713 1.10084335 6.99123 1.0625 10.625 C1.05798828 11.42679688 1.05347656 12.22859375 1.04882812 13.0546875 C1.03703168 15.03649006 1.01909605 17.01825433 1 19 C2.4540625 18.9690625 2.4540625 18.9690625 3.9375 18.9375 C7 19 7 19 8 20 C8.04654 24.5050718 7.49427008 28.13502736 5.25 32.0625 C3 34 3 34 0.25 34.3125 C-0.4925 34.209375 -1.235 34.10625 -2 34 C-2.33 34.99 -2.66 35.98 -3 37 C-3.99 36.67 -4.98 36.34 -6 36 C-4.68 34.02 -3.36 32.04 -2 30 C-2.91523438 30.32613281 -3.83046875 30.65226562 -4.7734375 30.98828125 C-9.99684011 32.47748989 -15.23564868 32.25247314 -20.625 32.1875 C-21.64851563 32.18685547 -22.67203125 32.18621094 -23.7265625 32.18554688 C-28.30708273 32.15870789 -32.5164711 32.01118959 -37 31 C-36.67 32.98 -36.34 34.96 -36 37 C-38.3125 36.8125 -38.3125 36.8125 -41 36 C-44 31.96551724 -44 31.96551724 -44 29 C-44.99 28.67 -45.98 28.34 -47 28 C-47.33 26.02 -47.66 24.04 -48 22 C-44.625 21.8125 -44.625 21.8125 -41 22 C-40.34 22.99 -39.68 23.98 -39 25 C-35.960283 25.43497685 -35.960283 25.43497685 -32.3828125 25.328125 C-31.72924774 25.32625183 -31.07568298 25.32437866 -30.40231323 25.32244873 C-29.0186453 25.31572338 -27.63499653 25.30179909 -26.25146484 25.28125 C-24.14011837 25.25022218 -22.02952017 25.24029109 -19.91796875 25.234375 C-12.37068281 25.35421116 -12.37068281 25.35421116 -5 24 C-5.11503269 21.4783624 -5.24174777 18.9581881 -5.375 16.4375 C-5.4059375 15.73302734 -5.436875 15.02855469 -5.46875 14.30273438 C-5.72952558 9.58704259 -6.54658123 5.49614504 -8 1 C-5.23735711 0.40267181 -2.83967231 0 0 0 Z " fill="#DCFB30" transform="translate(285,12)"/>
<path d="M0 0 C1.6874269 0.00015917 3.37485866 0.00585622 5.06225586 0.01586914 C6.39189613 0.01799156 6.39189613 0.01799156 7.74839783 0.02015686 C10.59133215 0.02577324 13.43418892 0.03832848 16.27709961 0.05102539 C18.19962452 0.05603828 20.12215065 0.06060155 22.04467773 0.06469727 C26.7680151 0.07574798 31.49129419 0.09302356 36.21459961 0.11352539 C33.34182642 1.65377696 30.5850069 2.66617302 27.44116211 3.51586914 C26.53366211 3.7665918 25.62616211 4.01731445 24.69116211 4.27563477 C22.79838338 4.79031501 20.90515669 5.30335079 19.01147461 5.81469727 C14.0958125 7.17590398 9.74092487 8.7066699 5.21459961 11.11352539 C4.55459961 11.11352539 3.89459961 11.11352539 3.21459961 11.11352539 C3.47122206 12.5536302 3.74550782 13.99059409 4.02709961 15.42602539 C4.17791992 16.2265332 4.32874023 17.02704102 4.48413086 17.85180664 C5.03581666 20.18232363 5.03581666 20.18232363 6.77709961 21.58227539 C8.21459961 23.11352539 8.21459961 23.11352539 8.50756836 25.59399414 C8.40991211 28.10050456 8.31225586 30.60701497 8.21459961 33.11352539 C4.58459961 33.11352539 0.95459961 33.11352539 -2.78540039 33.11352539 C-3.11540039 32.45352539 -3.44540039 31.79352539 -3.78540039 31.11352539 C-0.81540039 31.11352539 2.15459961 31.11352539 5.21459961 31.11352539 C5.54459961 28.80352539 5.87459961 26.49352539 6.21459961 24.11352539 C3.12650266 22.34889856 1.98147825 22.11352539 -1.78540039 22.11352539 C-2.29107768 19.55202911 -2.79010171 16.98953074 -3.28540039 14.42602539 C-3.42848633 13.70479492 -3.57157227 12.98356445 -3.71899414 12.24047852 C-4.43691938 8.49701118 -5.07842676 4.94484513 -4.78540039 1.11352539 C-3.78540039 0.11352539 -3.78540039 0.11352539 0 0 Z " fill="#921415" transform="translate(240.785400390625,-0.113525390625)"/>
<path d="M0 0 C2.31 0 4.62 0 7 0 C8.80619523 4.46236469 9.11658501 7.31034294 8 12 C0.57142857 14.14285714 0.57142857 14.14285714 -3 15 C-2.979375 15.804375 -2.95875 16.60875 -2.9375 17.4375 C-3 20 -3 20 -4 21 C-5.66617115 21.04063832 -7.33388095 21.042721 -9 21 C-9.33 20.01 -9.66 19.02 -10 18 C-10 18.99 -10 19.98 -10 21 C-10 21.66 -10 22.32 -10 23 C-11.65 23 -13.3 23 -15 23 C-15 22.01 -15 21.02 -15 20 C-15.84304688 20.46019531 -15.84304688 20.46019531 -16.703125 20.9296875 C-19.06346934 22.02957585 -21.20465562 22.60095851 -23.75 23.125 C-24.54921875 23.29257812 -25.3484375 23.46015625 -26.171875 23.6328125 C-26.77515625 23.75398438 -27.3784375 23.87515625 -28 24 C-28 23.34 -28 22.68 -28 22 C-27.34 22 -26.68 22 -26 22 C-25.835 21.38125 -25.67 20.7625 -25.5 20.125 C-23.71111208 17.59074212 -23.05724253 17.575181 -20.125 16.9375 C-19.10792969 16.76541016 -19.10792969 16.76541016 -18.0703125 16.58984375 C-15.89664119 16.11136721 -15.89664119 16.11136721 -14.10546875 14.515625 C-8.56491372 10.52724772 0.34168408 10.69734928 7 11 C6.34 8.03 5.68 5.06 5 2 C2.525 1.505 2.525 1.505 0 1 C0 0.67 0 0.34 0 0 Z " fill="#B8C0A9" transform="translate(277,0)"/>
<path d="M0 0 C3.375 -0.1875 3.375 -0.1875 7 0 C7.66 0.99 8.32 1.98 9 3 C11.19454681 3.57993699 11.19454681 3.57993699 13.625 3.6875 C14.44226563 3.75324219 15.25953125 3.81898437 16.1015625 3.88671875 C16.72804687 3.92410156 17.35453125 3.96148437 18 4 C18 4.66 18 5.32 18 6 C26.91 5.67 35.82 5.34 45 5 C45 5.66 45 6.32 45 7 C38.22587039 8.03084581 31.59513451 8.14998224 24.75 8.125 C23.67492187 8.12886719 22.59984375 8.13273437 21.4921875 8.13671875 C19.94144531 8.13478516 19.94144531 8.13478516 18.359375 8.1328125 C17.42577148 8.13168457 16.49216797 8.13055664 15.53027344 8.12939453 C13.20554032 8.01051104 11.22535358 7.65716453 9 7 C9 7.99 9 8.98 9 10 C9.66 10 10.32 10 11 10 C11.33 11.65 11.66 13.3 12 15 C9.6875 14.8125 9.6875 14.8125 7 14 C4 9.96551724 4 9.96551724 4 7 C3.01 6.67 2.02 6.34 1 6 C0.67 4.02 0.34 2.04 0 0 Z " fill="#D6FB0D" transform="translate(237,34)"/>
<path d="M0 0 C1.77007714 -0.08114106 3.54122098 -0.13925505 5.3125 -0.1875 C6.29863281 -0.22230469 7.28476562 -0.25710937 8.30078125 -0.29296875 C11 0 11 0 12.83203125 1.26171875 C14.89196705 4.32750949 14.51730534 7.45276338 14 11 C13 13 13 13 11 14 C7.45276338 14.51730534 4.32750949 14.89196705 1.26171875 12.83203125 C-0.50751311 10.26308469 -0.29636345 8.39696435 -0.1875 5.3125 C-0.16042969 4.31863281 -0.13335937 3.32476562 -0.10546875 2.30078125 C-0.07066406 1.54152344 -0.03585938 0.78226562 0 0 Z " fill="#D8FC15" transform="translate(43,0)"/>
<path d="M0 0 C0.33 0 0.66 0 1 0 C1 1.65 1 3.3 1 5 C2.3921875 4.6596875 2.3921875 4.6596875 3.8125 4.3125 C7 4 7 4 8.9375 5.125 C10 7 10 7 9.875 9.5 C8.44736842 13.57894737 8.44736842 13.57894737 6 15 C-1.02828283 14.97171717 -1.02828283 14.97171717 -3 13 C-3.49432386 7.80959948 -2.19790854 4.57897612 0 0 Z " fill="#DBE0DD" transform="translate(238,17)"/>
<path d="M0 0 C0.66 0 1.32 0 2 0 C2.88021369 6.71162938 3.11381955 13.23405981 3 20 C3.99 20 4.98 20 6 20 C5.79375 18.7625 5.5875 17.525 5.375 16.25 C4.93892876 12.88090165 4.96596361 10.87158079 7 8 C8.65 8 10.3 8 12 8 C10.625 9.5 10.625 9.5 9 11 C8.34 11 7.68 11 7 11 C7.25662245 12.44010481 7.53090821 13.8770687 7.8125 15.3125 C7.96332031 16.11300781 8.11414063 16.91351562 8.26953125 17.73828125 C8.82121705 20.06879824 8.82121705 20.06879824 10.5625 21.46875 C12 23 12 23 12.29296875 25.48046875 C12.1953125 27.98697917 12.09765625 30.49348958 12 33 C8.37 33 4.74 33 1 33 C0.67 32.34 0.34 31.68 0 31 C2.97 31 5.94 31 9 31 C9.33 28.69 9.66 26.38 10 24 C6.91190305 22.23537317 5.76687864 22 2 22 C1.49432271 19.43850372 0.99529868 16.87600535 0.5 14.3125 C0.35691406 13.59126953 0.21382812 12.87003906 0.06640625 12.12695312 C-0.65151899 8.38348579 -1.29302637 4.83131974 -1 1 C-0.67 0.67 -0.34 0.34 0 0 Z " fill="#771D1E" transform="translate(237,0)"/>
<path d="M0 0 C3.96 0 7.92 0 12 0 C11.34 2.31 10.68 4.62 10 7 C8.35 7.33 6.7 7.66 5 8 C4.835 9.2375 4.67 10.475 4.5 11.75 C4.4071875 12.44609375 4.314375 13.1421875 4.21875 13.859375 C3.93222643 16.30458395 3.93222643 16.30458395 4 20 C3.01 20 2.02 20 1 20 C0.29867087 13.29980211 -0.11044961 6.73742646 0 0 Z " fill="#A20505" transform="translate(239,0)"/>
<path d="M0 0 C0.99 0.495 0.99 0.495 2 1 C3.70702735 1.06996014 5.41668003 1.08440154 7.125 1.0625 C8.03507813 1.05347656 8.94515625 1.04445312 9.8828125 1.03515625 C10.93082031 1.01775391 10.93082031 1.01775391 12 1 C12.33 2.32 12.66 3.64 13 5 C14.65 5.33 16.3 5.66 18 6 C18 6.33 18 6.66 18 7 C16.72125 7.061875 15.4425 7.12375 14.125 7.1875 C13.40570313 7.22230469 12.68640625 7.25710937 11.9453125 7.29296875 C11.30335938 7.19628906 10.66140625 7.09960938 10 7 C9.34 6.01 8.68 5.02 8 4 C4.43230448 3.26393501 4.43230448 3.26393501 1 3 C2.12392548 6.89051128 3.03457324 9.27180738 6 12 C6.474375 12.86625 6.94875 13.7325 7.4375 14.625 C8.73969559 17.15042573 8.73969559 17.15042573 11 17.625 C11.66 17.74875 12.32 17.8725 13 18 C14.75 19.4375 14.75 19.4375 16 21 C16 21.66 16 22.32 16 23 C18.97 23.33 21.94 23.66 25 24 C25 24.66 25 25.32 25 26 C16.77620207 25.32866956 10.92399972 21.66643451 5 16 C0.65543642 10.68362615 -0.60977245 6.82945144 0 0 Z M12 13 C14.31 14.65 16.62 16.3 19 18 C16.50907189 19.24546405 15.58919267 18.7767578 13 18 C12.67 16.35 12.34 14.7 12 13 Z " fill="#E4FB5F" transform="translate(236,31)"/>
<path d="M0 0 C0.66 0 1.32 0 2 0 C2 0.99 2 1.98 2 3 C3.98 3.66 5.96 4.32 8 5 C5.94766315 7.2477975 4.99332739 8.0022242 2 9 C0.33289654 10.49985609 0.33289654 10.49985609 -1 12 C-3 10.875 -3 10.875 -5 9 C-5.25 5.8125 -5.25 5.8125 -5 3 C-3.35 2.67 -1.7 2.34 0 2 C0 1.34 0 0.68 0 0 Z " fill="#E2EAE9" transform="translate(250,11)"/>
<path d="M0 0 C2.31 0.33 4.62 0.66 7 1 C7 1.99 7 2.98 7 4 C12.28 4 17.56 4 23 4 C23 4.66 23 5.32 23 6 C21.68 6 20.36 6 19 6 C19 6.66 19 7.32 19 8 C16.69 8 14.38 8 12 8 C12 7.34 12 6.68 12 6 C9.03 5.67 6.06 5.34 3 5 C3 4.34 3 3.68 3 3 C2.01 2.67 1.02 2.34 0 2 C0 1.34 0 0.68 0 0 Z " fill="#D7FD0C" transform="translate(249,49)"/>
<path d="M0 0 C2.31 0 4.62 0 7 0 C8.80619523 4.46236469 9.11658501 7.31034294 8 12 C6.329375 12.4640625 6.329375 12.4640625 4.625 12.9375 C1.2054845 13.82326483 1.2054845 13.82326483 -1 15 C-3.0374763 15.22858114 -5.08040303 15.41024278 -7.125 15.5625 C-8.22070312 15.64628906 -9.31640625 15.73007813 -10.4453125 15.81640625 C-11.28835938 15.87699219 -12.13140625 15.93757812 -13 16 C-12.67 15.01 -12.34 14.02 -12 13 C-5.6221448 11.82706111 0.50321562 10.70469162 7 11 C6.34 8.03 5.68 5.06 5 2 C2.525 1.505 2.525 1.505 0 1 C0 0.67 0 0.34 0 0 Z " fill="#B8BDB8" transform="translate(277,0)"/>
<path d="M0 0 C0.99 0 1.98 0 3 0 C2.34 2.31 1.68 4.62 1 7 C-1.25 7.75 -1.25 7.75 -4 8 C-6.3125 6.1875 -6.3125 6.1875 -8 4 C-8 3.34 -8 2.68 -8 2 C-6.865625 1.855625 -5.73125 1.71125 -4.5625 1.5625 C-1.19222799 1.38828522 -1.19222799 1.38828522 0 0 Z " fill="#890101" transform="translate(248,0)"/>
<path d="M0 0 C-0.99 0.495 -0.99 0.495 -2 1 C-1.979375 1.804375 -1.95875 2.60875 -1.9375 3.4375 C-2 6 -2 6 -3 7 C-4.66617115 7.04063832 -6.33388095 7.042721 -8 7 C-8 5.68 -8 4.36 -8 3 C-8.66 2.67 -9.32 2.34 -10 2 C-6.49223216 0.39644899 -3.85645121 -0.22036864 0 0 Z " fill="#B9D13D" transform="translate(276,14)"/>
<path d="M0 0 C0.66 0 1.32 0 2 0 C2 3.3 2 6.6 2 10 C2.99 10.33 3.98 10.66 5 11 C5 11.66 5 12.32 5 13 C6.98 13 8.96 13 11 13 C11 13.33 11 13.66 11 14 C3.5542268 14.36618557 3.5542268 14.36618557 1.25 12.84375 C-0.49814698 10.26523321 -0.29627565 8.39447672 -0.1875 5.3125 C-0.16042969 4.31863281 -0.13335937 3.32476562 -0.10546875 2.30078125 C-0.07066406 1.54152344 -0.03585938 0.78226562 0 0 Z " fill="#DDF74C" transform="translate(43,0)"/>
<path d="M0 0 C1.65497356 3.30994713 1.10084335 6.99123 1.0625 10.625 C1.05798828 11.42679688 1.05347656 12.22859375 1.04882812 13.0546875 C1.03703168 15.03649006 1.01909605 17.01825433 1 19 C0.67 19 0.34 19 0 19 C-0.33 14.05 -0.66 9.1 -1 4 C-1.99 3.67 -2.98 3.34 -4 3 C-4.33 4.32 -4.66 5.64 -5 7 C-5 5.35 -5 3.7 -5 2 C-5.99 1.67 -6.98 1.34 -8 1 C-5.23735711 0.40267181 -2.83967231 0 0 0 Z " fill="#DAF64E" transform="translate(285,12)"/>
<path d="M0 0 C1.32 0 2.64 0 4 0 C3.67 0.99 3.34 1.98 3 3 C2.34 3 1.68 3 1 3 C1 4.32 1 5.64 1 7 C2.32 6.67 3.64 6.34 5 6 C4.67 6.66 4.34 7.32 4 8 C1.69 8 -0.62 8 -3 8 C-3.33 6.35 -3.66 4.7 -4 3 C-2.68 3 -1.36 3 0 3 C0 2.01 0 1.02 0 0 Z " fill="#E8EDEF" transform="translate(278,1)"/>
<path d="M0 0 C3.63 0 7.26 0 11 0 C11.33 1.32 11.66 2.64 12 4 C13.65 4.33 15.3 4.66 17 5 C17 5.33 17 5.66 17 6 C15.72125 6.061875 14.4425 6.12375 13.125 6.1875 C12.40570313 6.22230469 11.68640625 6.25710937 10.9453125 6.29296875 C10.30335938 6.19628906 9.66140625 6.09960938 9 6 C8.34 5.01 7.68 4.02 7 3 C3.43230448 2.26393501 3.43230448 2.26393501 0 2 C0 1.34 0 0.68 0 0 Z " fill="#DEF652" transform="translate(237,32)"/>
<path d="M0 0 C1.984375 1.17578125 1.984375 1.17578125 4 3 C4.53610066 6.40423922 4.1800811 9.53343877 4 13 C0.37 13 -3.26 13 -7 13 C-7.33 12.34 -7.66 11.68 -8 11 C-5.03 11 -2.06 11 1 11 C2.01687046 6.22237362 2.01687046 6.22237362 1.0625 1.5625 C0.711875 1.046875 0.36125 0.53125 0 0 Z " fill="#80923E" transform="translate(245,20)"/>
<path d="M0 0 C-0.1875 2.875 -0.1875 2.875 -1 6 C-4.25802063 7.93720146 -6.15044673 8 -10 8 C-10 7.34 -10 6.68 -10 6 C-8.68 6 -7.36 6 -6 6 C-6 5.01 -6 4.02 -6 3 C-2.66666667 0 -2.66666667 0 0 0 Z " fill="#DCFB31" transform="translate(278,49)"/>
<path d="M0 0 C0.66 0 1.32 0 2 0 C2 4.62 2 9.24 2 14 C1.34 14 0.68 14 0 14 C-0.19393875 11.85473901 -0.37998676 9.70876323 -0.5625 7.5625 C-0.71912109 5.77005859 -0.71912109 5.77005859 -0.87890625 3.94140625 C-0.91886719 2.97074219 -0.95882812 2.00007812 -1 1 C-0.67 0.67 -0.34 0.34 0 0 Z " fill="#944040" transform="translate(237,0)"/>
<path d="M0 0 C2.97 0 5.94 0 9 0 C8.67 0.66 8.34 1.32 8 2 C5.69 2 3.38 2 1 2 C1.495 2.4125 1.99 2.825 2.5 3.25 C4 5 4 5 4 9 C3.34 9 2.68 9 2 9 C-0.29013653 5.5647952 -0.17842973 4.014669 0 0 Z " fill="#BC0305" transform="translate(239,0)"/>
<path d="M0 0 C2 2 2 2 2.125 5.625 C2.08375 6.73875 2.0425 7.8525 2 9 C0.35 9 -1.3 9 -3 9 C-2.34 8.01 -1.68 7.02 -1 6 C-1.66 6 -2.32 6 -3 6 C-3 4.68 -3 3.36 -3 2 C-2.01 1.34 -1.02 0.68 0 0 Z " fill="#D6DBDE" transform="translate(282,2)"/>
<path d="M0 0 C4.62 0 9.24 0 14 0 C9.12206417 3.25195722 4.77608621 3.11325659 -1 3 C-0.67 2.01 -0.34 1.02 0 0 Z " fill="#B90503" transform="translate(257,0)"/>
<path d="M0 0 C0.33 0 0.66 0 1 0 C1.10957031 0.61488281 1.21914062 1.22976562 1.33203125 1.86328125 C1.49058594 2.67152344 1.64914063 3.47976562 1.8125 4.3125 C1.96332031 5.11300781 2.11414063 5.91351563 2.26953125 6.73828125 C3.08925752 9.2763642 4.04032824 10.24581812 6 12 C7.45323533 14.29164033 8.78684546 16.57369092 10 19 C4.85968862 16.87682791 2.37229184 12.89188285 0 8 C-0.46563161 5.11593481 -0.32036625 2.9366906 0 0 Z " fill="#E9FB7B" transform="translate(236,31)"/>
<path d="M0 0 C0.33 0 0.66 0 1 0 C1.04254356 1.99954746 1.04080783 4.00041636 1 6 C0.67 6.33 0.34 6.66 0 7 C-0.04092937 9.33297433 -0.04241723 11.66705225 0 14 C-0.99 13.67 -1.98 13.34 -3 13 C-3.38281159 7.76824163 -2.21854707 4.62197306 0 0 Z " fill="#B0AAAF" transform="translate(238,17)"/>
<path d="M0 0 C0 1.32 0 2.64 0 4 C-0.928125 4.12375 -0.928125 4.12375 -1.875 4.25 C-4.18437567 4.81258459 -4.18437567 4.81258459 -5.25 7.0625 C-5.4975 7.701875 -5.745 8.34125 -6 9 C-6 6.69 -6 4.38 -6 2 C-2.25 0 -2.25 0 0 0 Z " fill="#E2D9D7" transform="translate(250,9)"/>
<path d="M0 0 C0 0.99 0 1.98 0 3 C-3.96 3 -7.92 3 -12 3 C-7.86112344 0.24074896 -4.92824278 -0.13689563 0 0 Z " fill="#E2CCCC" transform="translate(278,1)"/>
<path d="M0 0 C1.32 0 2.64 0 4 0 C4 0.66 4 1.32 4 2 C3.01 2.66 2.02 3.32 1 4 C0.34 4.66 -0.32 5.32 -1 6 C-1.99 6 -2.98 6 -4 6 C-4 5.34 -4 4.68 -4 4 C-3.34 4 -2.68 4 -2 4 C-1.34 2.68 -0.68 1.36 0 0 Z " fill="#C0C3BF" transform="translate(253,18)"/>
<path d="M0 0 C1.65 0 3.3 0 5 0 C5 0.99 5 1.98 5 3 C3.35 3.33 1.7 3.66 0 4 C0 2.68 0 1.36 0 0 Z " fill="#E8ECF4" transform="translate(252,15)"/>
<path d="M0 0 C0.66 0 1.32 0 2 0 C2.33 1.32 2.66 2.64 3 4 C1.125 5.0625 1.125 5.0625 -1 6 C-1.66 5.67 -2.32 5.34 -3 5 C-2 3 -2 3 0 0 Z " fill="#EBEFF2" transform="translate(242,23)"/>
<path d="M0 0 C1.32 0.33 2.64 0.66 4 1 C4.33 2.32 4.66 3.64 5 5 C3.35 5 1.7 5 0 5 C0 3.35 0 1.7 0 0 Z " fill="#E6F39A" transform="translate(262,18)"/>
<path d="M0 0 C-0.66 1.32 -1.32 2.64 -2 4 C-4.31 4 -6.62 4 -9 4 C-8 2 -8 2 -5.0625 0.875 C-2 0 -2 0 0 0 Z " fill="#A1A786" transform="translate(262,18)"/>
<path d="M0 0 C1.32 0 2.64 0 4 0 C4 0.66 4 1.32 4 2 C3.34 2.66 2.68 3.32 2 4 C1.67 4.66 1.34 5.32 1 6 C0.34 6 -0.32 6 -1 6 C-0.67 4.02 -0.34 2.04 0 0 Z " fill="#C30507" transform="translate(251,0)"/>
<path d="M0 0 C0 0.99 0 1.98 0 3 C-0.99 3 -1.98 3 -3 3 C-3.33 4.32 -3.66 5.64 -4 7 C-4 5.35 -4 3.7 -4 2 C-4.99 1.67 -5.98 1.34 -7 1 C-2.25 0 -2.25 0 0 0 Z " fill="#A5BE2C" transform="translate(284,12)"/>
<path d="M0 0 C1.65 0 3.3 0 5 0 C4.67 1.65 4.34 3.3 4 5 C3.34 5 2.68 5 2 5 C1.34 3.35 0.68 1.7 0 0 Z " fill="#760000" transform="translate(242,3)"/>
</svg>
